<svg width="32" height="30" viewBox="0 0 32 30" fill="none" xmlns="http://www.w3.org/2000/svg">
<path d="M28.6652 11.5283L22.3693 20.4932C19.3906 24.7346 17.9012 26.8553 15.8225 26.8553C13.7438 26.8553 12.2544 24.7346 9.27569 20.4932L2.89939 11.4139C1.76251 9.79507 1.19406 8.98565 1.0427 8.0962C0.954465 7.57775 0.969338 7.04698 1.08646 6.53429C1.2874 5.6547 1.90028 4.87839 3.12603 3.32577C3.94142 2.29295 4.34911 1.77654 4.87314 1.42583C5.18067 1.22001 5.51527 1.05786 5.86737 0.944022C6.46735 0.750038 7.12529 0.750038 8.44118 0.750038H23.064C24.3881 0.750038 25.0501 0.750038 25.6545 0.947118C25.9796 1.05311 26.2897 1.20035 26.5773 1.38522C27.1121 1.72895 27.5306 2.24196 28.3676 3.26797C29.6712 4.86598 30.323 5.66498 30.5309 6.5804C30.6418 7.06879 30.66 7.57367 30.5845 8.06878C30.4431 8.99678 29.8505 9.84062 28.6652 11.5283Z" stroke="url(#paint0_linear_1_134)" stroke-width="1.5"/>
<path d="M28.6652 11.5283L22.3693 20.4932C19.3906 24.7346 17.9012 26.8553 15.8225 26.8553C13.7438 26.8553 12.2544 24.7346 9.27569 20.4932L2.89939 11.4139C1.76251 9.79507 1.19406 8.98565 1.0427 8.0962C0.954465 7.57775 0.969338 7.04698 1.08646 6.53429C1.2874 5.6547 1.90028 4.87839 3.12603 3.32577C3.94142 2.29295 4.34911 1.77654 4.87314 1.42583C5.18067 1.22001 5.51527 1.05786 5.86737 0.944022C6.46735 0.750038 7.12529 0.750038 8.44118 0.750038H23.064C24.3881 0.750038 25.0501 0.750038 25.6545 0.947118C25.9796 1.05311 26.2897 1.20035 26.5773 1.38522C27.1121 1.72895 27.5306 2.24196 28.3676 3.26797C29.6712 4.86598 30.323 5.66498 30.5309 6.5804C30.6418 7.06879 30.66 7.57367 30.5845 8.06878C30.4431 8.99678 29.8505 9.84062 28.6652 11.5283Z" stroke="url(#paint1_linear_1_134)" stroke-width="1.5"/>
<path fill-rule="evenodd" clip-rule="evenodd" d="M11.6547 8.03591L11.6543 8.03541H19.819L19.8186 8.03591H20.3278L16.0646 25.4886C16.0444 25.5713 16.0087 25.6101 15.9779 25.6325C15.9408 25.6596 15.8862 25.6793 15.8217 25.6793C15.7572 25.6793 15.7026 25.6596 15.6655 25.6325C15.6347 25.6101 15.599 25.5713 15.5788 25.4886L11.3156 8.03591H11.6547ZM9.77149 8.03591H1.21793V6.53591H8.63848L4.73301 1.3751L5.92912 0.469941L10.2344 6.15904L14.7095 0.295033L15.7349 1.07756L16.7603 0.295033L21.2372 6.16133L25.5442 0.469941L26.7403 1.3751L22.8348 6.53591H30.4265V8.03591H21.8719L17.5217 25.8446C17.087 27.6242 14.5564 27.6242 14.1217 25.8446L9.77149 8.03591ZM11.8341 6.53541H19.6358L15.7349 1.42393L11.8341 6.53541Z" fill="url(#paint2_linear_1_134)"/>
<path fill-rule="evenodd" clip-rule="evenodd" d="M11.6547 8.03591L11.6543 8.03541H19.819L19.8186 8.03591H20.3278L16.0646 25.4886C16.0444 25.5713 16.0087 25.6101 15.9779 25.6325C15.9408 25.6596 15.8862 25.6793 15.8217 25.6793C15.7572 25.6793 15.7026 25.6596 15.6655 25.6325C15.6347 25.6101 15.599 25.5713 15.5788 25.4886L11.3156 8.03591H11.6547ZM9.77149 8.03591H1.21793V6.53591H8.63848L4.73301 1.3751L5.92912 0.469941L10.2344 6.15904L14.7095 0.295033L15.7349 1.07756L16.7603 0.295033L21.2372 6.16133L25.5442 0.469941L26.7403 1.3751L22.8348 6.53591H30.4265V8.03591H21.8719L17.5217 25.8446C17.087 27.6242 14.5564 27.6242 14.1217 25.8446L9.77149 8.03591ZM11.8341 6.53541H19.6358L15.7349 1.42393L11.8341 6.53541Z" fill="url(#paint3_linear_1_134)"/>
<defs>
<linearGradient id="paint0_linear_1_134" x1="-1.12635" y1="0.750043" x2="36.5427" y2="5.44791" gradientUnits="userSpaceOnUse">
<stop stop-color="#FFAE88"/>
<stop offset="1" stop-color="#8F93EA"/>
</linearGradient>
<linearGradient id="paint1_linear_1_134" x1="25.2087" y1="-23.471" x2="-0.72932" y2="-6.22892" gradientUnits="userSpaceOnUse">
<stop stop-color="#5FD3FF"/>
<stop offset="1" stop-color="#63D6FF" stop-opacity="0"/>
</linearGradient>
<linearGradient id="paint2_linear_1_134" x1="0.178297" y1="0.295037" x2="34.9494" y2="4.62234" gradientUnits="userSpaceOnUse">
<stop stop-color="#FFAE88"/>
<stop offset="1" stop-color="#8F93EA"/>
</linearGradient>
<linearGradient id="paint3_linear_1_134" x1="24.4858" y1="-22.1085" x2="0.51376" y2="-6.20697" gradientUnits="userSpaceOnUse">
<stop stop-color="#5FD3FF"/>
<stop offset="1" stop-color="#63D6FF" stop-opacity="0"/>
</linearGradient>
</defs>
</svg>
